<?xml version="1.0" encoding="UTF-8"?>
<!DOCTYPE svg PUBLIC "-//W3C//DTD SVG 1.1//EN" "http://www.w3.org/Graphics/SVG/1.1/DTD/svg11.dtd">
<svg xmlns="http://www.w3.org/2000/svg" version="1.1" width="201px" height="295px" style="shape-rendering:geometricPrecision; text-rendering:geometricPrecision; image-rendering:optimizeQuality; fill-rule:evenodd; clip-rule:evenodd" xmlns:xlink="http://www.w3.org/1999/xlink">
<g><path style="opacity:1" fill="#fbfbfb" d="M -0.5,-0.5 C 66.5,-0.5 133.5,-0.5 200.5,-0.5C 200.5,28.1667 200.5,56.8333 200.5,85.5C 197.8,85.7708 195.133,86.1041 192.5,86.5C 186.184,83.1954 179.85,79.8621 173.5,76.5C 172.667,114.829 172.167,153.162 172,191.5C 140.082,163.471 107.915,135.804 75.5,108.5C 70.8207,103.822 65.8207,99.489 60.5,95.5C 51.1478,86.8154 41.4812,78.4821 31.5,70.5C 21.6726,75.5795 12.0059,80.9129 2.5,86.5C 1.50032,108.156 1.16698,129.823 1.5,151.5C 1.5,156.833 1.5,162.167 1.5,167.5C 1.5,179.167 1.5,190.833 1.5,202.5C 0.833333,201.833 0.166667,201.167 -0.5,200.5C -0.5,133.5 -0.5,66.5 -0.5,-0.5 Z"/></g>
<g><path style="opacity:1" fill="#010101" d="M 118.5,1.5 C 125.496,5.57619 132.663,9.57619 140,13.5C 140.667,57.1667 140.667,100.833 140,144.5C 131.674,138.005 123.841,131.005 116.5,123.5C 115.839,82.4863 116.506,41.8196 118.5,1.5 Z"/></g>
<g><path style="opacity:1" fill="#717171" d="M 118.5,1.5 C 116.506,41.8196 115.839,82.4863 116.5,123.5C 115.501,82.6701 115.168,41.6701 115.5,0.5C 116.791,0.262695 117.791,0.596028 118.5,1.5 Z"/></g>
<g><path style="opacity:1" fill="#030303" d="M 82.5,28.5 C 83.4974,50.6604 83.8308,72.9938 83.5,95.5C 75.8331,88.6687 67.9997,82.002 60,75.5C 59.3333,63.8333 59.3333,52.1667 60,40.5C 67.3914,36.2701 74.8914,32.2701 82.5,28.5 Z"/></g>
<g><path style="opacity:1" fill="#4f4f4f" d="M 82.5,28.5 C 82.56,27.9569 82.8933,27.6236 83.5,27.5C 83.8333,39 84.1667,50.5 84.5,62C 84.5105,73.908 84.1772,85.0747 83.5,95.5C 83.8308,72.9938 83.4974,50.6604 82.5,28.5 Z"/></g>
<g><path style="opacity:1" fill="#020202" d="M 60.5,95.5 C 60.3737,98.595 58.707,100.428 55.5,101C 56.3366,102.011 56.67,103.178 56.5,104.5C 58.8244,104.662 60.4911,105.828 61.5,108C 57.0204,109.47 53.3537,112.136 50.5,116C 51.9561,116.423 52.4561,117.256 52,118.5C 51.2303,117.402 50.397,117.402 49.5,118.5C 42.0176,111.928 34.3509,105.595 26.5,99.5C 25.5042,113.323 25.1709,127.323 25.5,141.5C 21.2769,142.394 20.6102,141.061 23.5,137.5C 21.7408,136.246 20.2408,136.579 19,138.5C 19.1449,141.514 19.6449,144.514 20.5,147.5C 22.5138,147.392 24.1805,148.058 25.5,149.5C 25.8307,171.34 25.4973,193.006 24.5,214.5C 16.8502,210.529 9.18354,206.529 1.5,202.5C 1.5,190.833 1.5,179.167 1.5,167.5C 8.36568,173.332 14.199,172.332 19,164.5C 20.3849,158.829 18.5515,154.662 13.5,152C 13.9574,151.586 14.2907,151.086 14.5,150.5C 13.3539,149.281 12.3539,147.948 11.5,146.5C 10.6143,147.325 10.281,148.325 10.5,149.5C 9.5,149.5 8.5,149.5 7.5,149.5C 7.5,150.5 7.5,151.5 7.5,152.5C 5.5,152.167 3.5,151.833 1.5,151.5C 1.16698,129.823 1.50032,108.156 2.5,86.5C 12.0059,80.9129 21.6726,75.5795 31.5,70.5C 41.4812,78.4821 51.1478,86.8154 60.5,95.5 Z"/></g>
<g><path style="opacity:1" fill="#050505" d="M 192.5,86.5 C 193.514,87.6737 194.847,88.3404 196.5,88.5C 197.833,126.833 197.833,165.167 196.5,203.5C 186.353,209.24 176.02,214.407 165.5,219C 130.295,188.29 94.9613,157.79 59.5,127.5C 60.484,124.93 61.6507,124.93 63,127.5C 64.927,125.407 64.7603,123.407 62.5,121.5C 64.4735,119.098 65.9735,116.431 67,113.5C 70.8333,115 72,113.833 70.5,110C 71.4491,109.383 72.2825,109.549 73,110.5C 73.7083,109.619 74.5416,108.953 75.5,108.5C 107.915,135.804 140.082,163.471 172,191.5C 172.167,153.162 172.667,114.829 173.5,76.5C 179.85,79.8621 186.184,83.1954 192.5,86.5 Z"/></g>
<g><path style="opacity:1" fill="#fdfdfd" d="M 200.5,85.5 C 200.5,155.167 200.5,224.833 200.5,294.5C 133.5,294.5 66.5,294.5 -0.5,294.5C -0.5,263.167 -0.5,231.833 -0.5,200.5C 0.166667,201.167 0.833333,201.833 1.5,202.5C 9.18354,206.529 16.8502,210.529 24.5,214.5C 24.56,215.043 24.8933,215.376 25.5,215.5C 26.4999,176.839 26.8332,138.172 26.5,99.5C 34.3509,105.595 42.0176,111.928 49.5,118.5C 52.8076,121.471 56.141,124.471 59.5,127.5C 94.9613,157.79 130.295,188.29 165.5,219C 176.02,214.407 186.353,209.24 196.5,203.5C 197.833,184.678 198.5,165.512 198.5,146C 198.5,126.488 197.833,107.322 196.5,88.5C 194.847,88.3404 193.514,87.6737 192.5,86.5C 195.133,86.1041 197.8,85.7708 200.5,85.5 Z"/></g>
<g><path style="opacity:1" fill="#9a9a9a" d="M 196.5,88.5 C 197.833,107.322 198.5,126.488 198.5,146C 198.5,165.512 197.833,184.678 196.5,203.5C 197.833,165.167 197.833,126.833 196.5,88.5 Z"/></g>
<g><path style="opacity:1" fill="#1e1e1e" d="M 60.5,95.5 C 65.8207,99.489 70.8207,103.822 75.5,108.5C 74.5416,108.953 73.7083,109.619 73,110.5C 72.2825,109.549 71.4491,109.383 70.5,110C 72,113.833 70.8333,115 67,113.5C 65.9735,116.431 64.4735,119.098 62.5,121.5C 64.7603,123.407 64.927,125.407 63,127.5C 61.6507,124.93 60.484,124.93 59.5,127.5C 56.141,124.471 52.8076,121.471 49.5,118.5C 50.397,117.402 51.2303,117.402 52,118.5C 52.4561,117.256 51.9561,116.423 50.5,116C 53.3537,112.136 57.0204,109.47 61.5,108C 60.4911,105.828 58.8244,104.662 56.5,104.5C 56.67,103.178 56.3366,102.011 55.5,101C 58.707,100.428 60.3737,98.595 60.5,95.5 Z"/></g>
<g><path style="opacity:1" fill="#282828" d="M 25.5,141.5 C 25.5,144.167 25.5,146.833 25.5,149.5C 24.1805,148.058 22.5138,147.392 20.5,147.5C 19.6449,144.514 19.1449,141.514 19,138.5C 20.2408,136.579 21.7408,136.246 23.5,137.5C 20.6102,141.061 21.2769,142.394 25.5,141.5 Z"/></g>
<g><path style="opacity:1" fill="#010101" d="M 60.5,147.5 C 68.1667,154.167 75.8333,160.833 83.5,167.5C 83.832,208.67 83.4986,249.67 82.5,290.5C 74.7027,286.768 67.036,282.768 59.5,278.5C 59.168,234.663 59.5013,190.997 60.5,147.5 Z"/></g>
<g><path style="opacity:1" fill="#4d4d4d" d="M 26.5,99.5 C 26.8332,138.172 26.4999,176.839 25.5,215.5C 24.8933,215.376 24.56,215.043 24.5,214.5C 25.4973,193.006 25.8307,171.34 25.5,149.5C 25.5,146.833 25.5,144.167 25.5,141.5C 25.1709,127.323 25.5042,113.323 26.5,99.5 Z"/></g>
<g><path style="opacity:1" fill="#939393" d="M 60.5,147.5 C 59.5013,190.997 59.168,234.663 59.5,278.5C 58.1692,234.665 58.1692,190.665 59.5,146.5C 60.1067,146.624 60.44,146.957 60.5,147.5 Z"/></g>
<g><path style="opacity:1" fill="#202020" d="M 1.5,167.5 C 1.5,162.167 1.5,156.833 1.5,151.5C 3.5,151.833 5.5,152.167 7.5,152.5C 7.5,151.5 7.5,150.5 7.5,149.5C 8.5,149.5 9.5,149.5 10.5,149.5C 10.281,148.325 10.6143,147.325 11.5,146.5C 12.3539,147.948 13.3539,149.281 14.5,150.5C 14.2907,151.086 13.9574,151.586 13.5,152C 18.5515,154.662 20.3849,158.829 19,164.5C 14.199,172.332 8.36568,173.332 1.5,167.5 Z"/></g>
<g><path style="opacity:1" fill="#4e4e4e" d="M 83.5,167.5 C 84.8307,208.669 84.8307,250.002 83.5,291.5C 82.8933,291.376 82.56,291.043 82.5,290.5C 83.4986,249.67 83.832,208.67 83.5,167.5 Z"/></g>
<g><path style="opacity:1" fill="#020202" d="M 117.5,196.5 C 125.103,202.93 132.603,209.597 140,216.5C 140.667,227.833 140.667,239.167 140,250.5C 132.394,254.385 124.894,258.385 117.5,262.5C 116.167,240.5 116.167,218.5 117.5,196.5 Z"/></g>
<g><path style="opacity:1" fill="#717171" d="M 117.5,196.5 C 116.167,218.5 116.167,240.5 117.5,262.5C 117.44,263.043 117.107,263.376 116.5,263.5C 115.167,240.833 115.167,218.167 116.5,195.5C 117.107,195.624 117.44,195.957 117.5,196.5 Z"/></g>
</svg>
